<svg preserveAspectRatio="none" overflow="visible" style="display: block;" width="69.9996" height="75.9442" viewBox="0 0 69.9996 75.9442" fill="none" xmlns="http://www.w3.org/2000/svg">
<g id="coin">
<path id="Vector" d="M45.4229 12.7587L53.9766 15.0288C54.1997 15.0743 54.3809 15.2566 54.4322 15.481L56.6873 24.0347C56.7481 24.2858 56.9689 24.4623 57.2259 24.4623C57.4853 24.4623 57.7038 24.2858 57.7621 24.0347L60.0205 15.481C60.0684 15.2567 60.2507 15.0743 60.4738 15.0288L69.0286 12.7587C69.2787 12.7119 69.4564 12.4888 69.4564 12.2317C69.4564 11.9723 69.2787 11.7538 69.0286 11.7037L60.4738 9.43471C60.2507 9.38695 60.0684 9.20687 60.0205 8.9826L57.7621 0.428948C57.7036 0.180053 57.4851 0.000130743 57.2259 0.000130743C56.9689 0.000130743 56.7479 0.180053 56.6873 0.428948L54.4322 8.9826C54.3809 9.20687 54.1998 9.38695 53.9766 9.43471L45.4229 11.7037C45.1705 11.754 44.9953 11.9725 44.9953 12.2317C44.9953 12.4888 45.1706 12.712 45.4229 12.7587Z" fill="#FDE345"/>
<path id="Vector_2" d="M54.1719 48.4334L50.2892 47.4042C50.1876 47.3807 50.1047 47.3012 50.0824 47.1986L49.059 43.3161C49.0321 43.2028 48.9327 43.1221 48.8148 43.1221C48.6991 43.1221 48.5987 43.2028 48.5707 43.3161L47.5472 47.1986C47.5238 47.3014 47.442 47.3807 47.3404 47.4042L43.4591 48.4334C43.3446 48.4557 43.2639 48.5562 43.2639 48.673C43.2639 48.7898 43.3446 48.8904 43.4591 48.9137L47.3404 49.9419C47.442 49.9628 47.5238 50.0471 47.5472 50.1499L48.5707 54.03C48.5987 54.1433 48.6991 54.224 48.8148 54.224C48.9329 54.224 49.0321 54.1433 49.059 54.03L50.0824 50.1499C50.1047 50.0471 50.1876 49.9628 50.2892 49.9419L54.1719 48.9137C54.284 48.8904 54.3659 48.7898 54.3659 48.673C54.3657 48.5561 54.284 48.4557 54.1719 48.4334Z" fill="#FDE345"/>
<path id="Vector_3" d="M2.6406 20.7775L8.75233 22.3968C8.91341 22.4308 9.04097 22.5606 9.07939 22.7216L10.6893 28.8334C10.7337 29.0145 10.8915 29.1395 11.075 29.1395C11.2595 29.1395 11.4162 29.0145 11.4595 28.8334L13.0706 22.7216C13.1046 22.5606 13.2366 22.4308 13.3966 22.3968L19.5095 20.7775C19.6883 20.7401 19.8156 20.5789 19.8156 20.3966C19.8156 20.2143 19.6883 20.0578 19.5095 20.0204L13.3966 18.3986C13.2366 18.3636 13.1046 18.2375 13.0706 18.0761L11.4595 11.961C11.4162 11.7833 11.2597 11.6572 11.075 11.6572C10.8917 11.6572 10.7338 11.7833 10.6893 11.961L9.07939 18.0763C9.04083 18.2375 8.91341 18.3636 8.75233 18.3988L2.6406 20.0206C2.45831 20.058 2.33327 20.2144 2.33327 20.3967C2.33327 20.5789 2.45831 20.7403 2.6406 20.7775Z" fill="#FDE345"/>
<path id="Vector_4" d="M55.8541 41.0723C54.6858 39.7053 53.0162 38.4925 50.9575 37.476H50.9599C46.8542 35.4431 41.2239 34.1989 35.0023 34.1953L34.9848 34.1964V34.1953C30.8989 34.1964 27.0643 34.7327 23.7496 35.6768C20.4349 36.6209 17.645 37.9669 15.6353 39.6026L15.6387 39.6003C14.2964 40.6915 13.3091 41.909 12.7612 43.2328C12.4479 43.9841 12.2833 44.7762 12.2844 45.5788C12.2844 46.239 12.8196 46.7752 13.4809 46.7752C14.1423 46.7752 14.6773 46.239 14.6773 45.5788C14.6785 45.0963 14.7697 44.6372 14.9717 44.1464C15.321 43.2959 16.0349 42.3589 17.1461 41.4591L17.1495 41.4567C18.8039 40.1015 21.33 38.849 24.4051 37.9786C27.4802 37.1011 31.1092 36.5881 34.9848 36.5893H35.0478C40.9259 36.5905 46.2361 37.7975 49.8955 39.6201L49.899 39.6213C51.7356 40.5257 53.1529 41.5887 54.035 42.6263C54.4791 43.1463 54.7945 43.6569 54.9966 44.1464C55.2491 44.7575 55.9477 45.0473 56.5588 44.7949C57.17 44.5426 57.4596 43.8438 57.2073 43.2328C56.8951 42.4778 56.4396 41.7546 55.8541 41.0723Z" fill="#FDE345"/>
<path id="Vector_5" d="M69.1023 40.3403C68.5976 39.1228 67.9071 37.9908 67.074 36.9451C66.2409 35.9006 65.2666 34.9401 64.1821 34.0568L64.1157 34.0031L64.1799 34.0568C60.9225 31.4093 56.6356 29.3857 51.6702 27.965H51.669C46.6988 26.5524 41.0287 25.7638 34.9999 25.7638C30.4058 25.7638 26.022 26.2218 21.9959 27.0642C17.9697 27.9067 14.3011 29.1334 11.1371 30.6966L11.1347 30.6978C7.97429 32.2658 5.28702 34.1749 3.2926 36.5034L3.32879 36.4589L3.29141 36.5034C2.29598 37.6695 1.4735 38.9489 0.897389 40.3403C0.320243 41.733 -0.00103579 43.2344 2.50882e-06 44.7801V56.9242C-0.00103579 58.4712 0.320243 59.9737 0.897389 61.3663C1.40215 62.5838 2.09277 63.7147 2.92578 64.7604C3.75998 65.8061 4.73316 66.7653 5.81729 67.6486L5.81967 67.6498C9.07711 70.2949 13.3626 72.3232 18.3282 73.7415L18.3549 73.7474C23.3198 75.1555 28.9804 75.943 34.9999 75.9442H35.0011C39.5939 75.943 43.9776 75.485 48.0038 74.6426C52.03 73.8001 55.6987 72.5722 58.8626 71.01L58.8649 71.0078C62.0253 69.4397 64.7114 67.5295 66.707 65.2033L66.7082 65.2011C67.7036 64.0373 68.5249 62.7593 69.101 61.3665L69.0648 61.4518L69.1022 61.3665C69.6782 59.9737 69.9996 58.4712 69.9996 56.9243V44.7802C69.9996 43.2344 69.6783 41.733 69.1023 40.3403ZM7.83174 63.2486C7.46374 62.9017 7.12021 62.5488 6.81421 62.1924C6.08859 61.3418 5.54407 60.4715 5.18067 59.5951C4.81726 58.7166 4.63512 57.8321 4.63512 56.9243V51.419C5.34427 52.2941 6.18203 53.1201 7.12956 53.8937C7.35754 54.077 7.59115 54.2583 7.83174 54.4382V63.2486ZM14.5429 67.4794C14.0814 67.2784 13.6269 67.0727 13.191 66.8555C12.1757 66.3531 11.2409 65.8168 10.3882 65.2573V56.109C11.6605 56.8392 13.0508 57.5086 14.5429 58.1115V67.4794ZM22.8534 70.086C20.748 69.6407 18.7723 69.0834 16.9508 68.4327H17.1015V59.045C17.6868 59.2388 18.2874 59.4223 18.8996 59.5977C20.1661 59.9575 21.4888 60.2728 22.8534 60.5475V70.086ZM33.7205 71.2951C30.8253 71.2367 28.0422 70.9727 25.411 70.5474V60.9949C28.0574 61.4037 30.8404 61.6432 33.7205 61.6995V71.2951ZM44.9088 70.4901C42.1842 70.9446 39.2937 71.2297 36.2792 71.2882V61.7051C39.2748 61.6467 42.169 61.3862 44.9088 60.9514V70.4901ZM53.2195 68.3742C52.3175 68.7015 51.3781 69.0052 50.4001 69.2832C49.4561 69.552 48.4724 69.7914 47.4652 70.011V60.4842C49.4901 60.0659 51.4155 59.5448 53.2195 58.9361V68.3742ZM59.9316 65.0397C58.7213 65.8693 57.3285 66.6404 55.7758 67.3413V57.9781C56.5235 57.6683 57.2491 57.3435 57.942 57.0013C58.6348 56.6566 59.2972 56.2956 59.9316 55.9216V65.0397ZM65.3646 56.9242C65.3646 57.8319 65.1825 58.7166 64.8179 59.595C64.3505 60.7306 63.5666 61.8605 62.4881 62.9436V54.3047H62.3362C63.397 53.495 64.3376 52.6316 65.1286 51.7075C65.2092 51.6128 65.2863 51.517 65.3645 51.4212V56.9242H65.3646ZM64.8179 47.4488C64.187 48.9816 62.9835 50.5029 61.2544 51.9108C58.6664 54.0232 54.9125 55.8553 50.4002 57.1369C45.8892 58.4221 40.6221 59.1641 35 59.1641C26.4346 59.1676 18.6872 57.4349 13.1911 54.709C10.4432 53.3504 8.26531 51.7474 6.81421 50.045C6.08859 49.1955 5.54407 48.3251 5.18067 47.449C4.81726 46.5703 4.63512 45.687 4.63512 44.7804C4.63512 43.8738 4.81726 42.9905 5.18067 42.1118C5.81403 40.5778 7.01505 39.0565 8.74545 37.651C11.3347 35.5373 15.0874 33.7043 19.5997 32.4225C24.1108 31.1386 29.379 30.3977 35 30.3977C43.5654 30.393 51.3115 32.1269 56.8077 34.8516C59.5568 36.2092 61.7358 37.8146 63.1846 39.5144C63.9113 40.3639 64.4558 41.2343 64.818 42.1117C65.1826 42.9904 65.3648 43.8735 65.3648 44.7802C65.3648 45.687 65.1825 46.5701 64.8179 47.4488Z" fill="#FDE345"/>
</g>
</svg>
